<?xml version="1.0" encoding="UTF-8" standalone="no"?>
<!-- Created with Inkscape (http://www.inkscape.org/) -->

<svg
   width="100mm"
   height="100mm"
   viewBox="0 0 100 100"
   version="1.1"
   id="svg1"
   xml:space="preserve"
   inkscape:version="1.3.2 (091e20e, 2023-11-25, custom)"
   sodipodi:docname="logo.svg"
   xmlns:inkscape="http://www.inkscape.org/namespaces/inkscape"
   xmlns:sodipodi="http://sodipodi.sourceforge.net/DTD/sodipodi-0.dtd"
   xmlns="http://www.w3.org/2000/svg"
   xmlns:svg="http://www.w3.org/2000/svg"><sodipodi:namedview
     id="namedview1"
     pagecolor="#ffffff"
     bordercolor="#000000"
     borderopacity="0.25"
     inkscape:showpageshadow="2"
     inkscape:pageopacity="0.0"
     inkscape:pagecheckerboard="0"
     inkscape:deskcolor="#d1d1d1"
     inkscape:document-units="mm"
     inkscape:zoom="1"
     inkscape:cx="331"
     inkscape:cy="218.5"
     inkscape:window-width="1920"
     inkscape:window-height="1017"
     inkscape:window-x="1912"
     inkscape:window-y="-8"
     inkscape:window-maximized="1"
     inkscape:current-layer="layer1" /><defs
     id="defs1"><pattern
       id="EMFhbasepattern"
       patternUnits="userSpaceOnUse"
       width="6"
       height="6"
       x="0"
       y="0" /></defs><g
     inkscape:label="Vrstva 1"
     inkscape:groupmode="layer"
     id="layer1"><path
       style="fill:#131313;stroke:none;stroke-width:1"
       d="m 39.258782,46.197479 c -2.181234,0.19011 -6.323021,0.562684 -7.342889,2.865075 -1.052865,2.37691 0.764955,6.56181 0.765124,9.194155 3.89e-4,6.07829 -1.118011,12.343437 -3.121817,18.088867 -0.650221,1.86434 -3.589956,6.54683 -2.295366,8.42902 1.253998,1.8232 3.087629,-0.85448 3.593408,-1.86184 2.011633,-4.00656 3.123197,-8.77483 4.014248,-13.14496 0.7498,-3.677317 1.09841,-7.215797 1.09841,-10.962927 5.830881,2.15026 -0.319203,14.464797 0.130266,19.125087 0.525735,5.45099 4.057503,-3.41594 4.298895,-4.87328 0.301973,-1.82309 0.562352,-3.65166 0.819684,-5.481457 0.35645,-2.5346 0.657908,-5.11727 0.780771,-7.67406 2.970605,0 12.410913,-1.63966 14.469223,0.33879 1.51214,1.45347 0.87585,4.89932 0.87889,6.78713 0.008,5.234217 0.65714,10.754077 1.64445,15.896257 0.2426,1.26357 0.82107,7.874731 3.516,5.98225 2.00213,-1.40597 -0.10105,-6.81941 -0.43818,-8.72299 -0.96435,-5.4458 -3.90569,-17.565327 0.21106,-21.925887 0.76009,5.88584 2.12442,11.918627 4.03203,17.540717 0.35379,1.04273 3.102362,6.50392 4.350912,3.1121 0.9975,-2.70988 -2.430142,-8.54546 -3.090942,-11.334307 -1.83882,-7.76043 -2.66354,-16.191815 -1.90922,-24.118464 0.71543,-7.517978 6.667552,-16.035128 4.489652,-23.57034 C 66.509809,7.2802217 45.612222,7.2179817 39.242284,17.145686 c -4.877399,7.60155 0.01653,20.423924 0.01653,29.051793 M 68.310629,25.367903 c -2.49199,-1.863159 -3.15651,-5.209858 -6.03176,-7.052746 -7.9924,-5.122765 -17.75926,-1.458748 -22.471908,5.956453 -1.406323,-5.955647 4.812082,-10.390132 9.866657,-11.502647 9.209931,-2.027108 18.630351,2.552618 18.637011,12.59894 m -7.12592,20.829576 -18.088865,-1.096294 c 0,-5.970401 -3.322866,-17.291796 0.0052,-22.422861 4.133891,-6.373689 19.070695,-6.315684 21.562995,1.593699 2.03279,6.451131 -3.1888,15.161594 -3.47921,21.925456 m -22.474036,8.770345 c -1.640829,-0.0351 -2.382024,0.0296 -2.740736,-1.64443 l 2.740736,1.64443 m 23.570326,-1.64443 v 2.19259 l -2.19259,-0.54816 v -1.09629 l 2.19259,-0.54814 m -6.02963,0.73087 0.18268,0.18267 c -0.27052,0.0901 -0.60664,-0.18267 -0.18268,-0.18267 m 0.54816,2.00985 v 1.644455 c -3.598431,0.15457 -13.276989,2.68675 -14.799974,-1.644455 h 14.799974 m -18.637005,0.73087 c 0.423916,0 0.0878,0.27289 -0.182712,0.18267 z"
       id="path1" /></g></svg>
